<svg id="Calque_1" data-name="Calque 1" xmlns="http://www.w3.org/2000/svg" xmlns:xlink="http://www.w3.org/1999/xlink" viewBox="0 0 249 391.26"><defs><style>.cls-1{fill:none;}.cls-2,.cls-3{fill:#e1e1ea;stroke:#000;stroke-miterlimit:10;}.cls-2{stroke-width:19px;}.cls-3{stroke-width:25px;}.cls-4{clip-path:url(#clip-path);}</style><clipPath id="clip-path" transform="translate(-168.19 -103.19)"><circle class="cls-1" cx="292.69" cy="227.83" r="102.5"/></clipPath></defs><title>icone_3_svg</title><path class="cls-2" d="M293,112.69h-.52c-63.27,0-114.74,52.28-114.74,116.55,0,42.12,18.88,97.71,56.11,165.23a924.76,924.76,0,0,0,55.49,88.24,6,6,0,0,1,2.61,2.07l.2.05a16.6,16.6,0,0,0,3.25-.68,4.43,4.43,0,0,0,1.08-1.08c.27-.43,28.07-43.08,55.49-95.24,37-70.4,55.77-123.76,55.77-158.59C407.68,165,356.21,112.69,293,112.69Z" transform="translate(-168.19 -103.19)"/><circle class="cls-3" cx="124.5" cy="124.64" r="102.5"/><g class="cls-4"><g id="Calque_2" data-name="Calque 2"><g id="Capa_1" data-name="Capa 1"><path d="M285.93,125.33H245.44v20.59h0v98.4c0,5.05,3,9.15,6.75,9.15h6.76v73.21h0V345h13.51V253.44h6.75c3.73,0,6.75-4.09,6.75-9.14h0V145.64h0Z" transform="translate(-168.19 -103.19)"/><path d="M339,125.33H299.5v20.29h-.06v98.66c0,5.05,3,9.15,6.74,9.16H313V345h13.51v-18.3h0V253.44h6.75c3.73,0,6.75-4.09,6.75-9.14h0v-119Z" transform="translate(-168.19 -103.19)"/></g></g></g></svg>