<svg id="Layer_1" data-name="Layer 1" xmlns="http://www.w3.org/2000/svg" viewBox="0 0 237 379.1"><defs><style>.cls-1{fill:#0c5d72;stroke:#010116;stroke-miterlimit:10;stroke-width:7px;}.cls-2{fill:#fff;}.cls-3{fill:#4f0808;}.cls-4{fill:#222e33;}</style></defs><title>icone_plan</title><g id="Calque_2" data-name="Calque 2"><g id="Capa_1" data-name="Capa 1"><path class="cls-1" d="M226,59.11h-.52c-63.24,0-114.74,52.28-114.74,116.5,0,42.13,18.88,97.72,56.11,165.24a927.2,927.2,0,0,0,55.49,88.24,6,6,0,0,1,2.61,2.06l.2.06a18.06,18.06,0,0,0,3.25-.68,4.47,4.47,0,0,0,1.08-1.09c.28-.42,28.07-43.07,55.49-95.23,37-70.4,55.77-123.77,55.77-158.6C340.78,111.39,289.28,59.11,226,59.11Z" transform="translate(-107.28 -55.61)"/></g></g><path class="cls-2" d="M152.13,196.13v47.5a6.25,6.25,0,0,0,6.25,6.25H299.63a6.25,6.25,0,0,0,6.25-6.25v-47.5Z" transform="translate(-107.28 -55.61)"/><path class="cls-3" d="M305.88,177.38v18.75H152.13V177.38Z" transform="translate(-107.28 -55.61)"/><path class="cls-4" d="M305.88,171.13v6.25H152.13v-37.5a43.75,43.75,0,0,1,87.5,0,12.5,12.5,0,0,0,12.5,12.5h35A18.75,18.75,0,0,1,305.88,171.13Z" transform="translate(-107.28 -55.61)"/><path class="cls-4" d="M291.5,196.13v28.75H279V196.13Z" transform="translate(-107.28 -55.61)"/><path class="cls-4" d="M266.5,196.13v28.75H254V196.13Z" transform="translate(-107.28 -55.61)"/><path class="cls-4" d="M241.5,196.13v28.75H229V196.13Z" transform="translate(-107.28 -55.61)"/><path class="cls-4" d="M204,196.13v28.75H191.5V196.13Z" transform="translate(-107.28 -55.61)"/><path class="cls-4" d="M179,196.13v28.75H166.5V196.13Z" transform="translate(-107.28 -55.61)"/><path d="M164.63,155.5a3.13,3.13,0,1,0,3.12,3.13A3.13,3.13,0,0,0,164.63,155.5Z" transform="translate(-107.28 -55.61)"/><path d="M287.13,149.25h-35a9.39,9.39,0,0,1-9.38-9.37,46.88,46.88,0,1,0-93.75,0V243.63a9.39,9.39,0,0,0,9.38,9.37H299.63a9.39,9.39,0,0,0,9.37-9.37v-72.5A21.9,21.9,0,0,0,287.13,149.25ZM302.75,193H155.25V180.5h147.5ZM169.63,221.75v-22.5h6.25v22.5ZM179,228a3.13,3.13,0,0,0,3.13-3.12V199.25h6.25v25.63A3.12,3.12,0,0,0,191.5,228h3.13v18.75H175.88V228Zm15.63-6.25v-22.5h6.25v22.5Zm6.25,6.25H204a3.13,3.13,0,0,0,3.13-3.12V199.25h6.25v47.5h-12.5Zm18.75-28.75h6.25v25.63A3.12,3.12,0,0,0,229,228h3.13v18.75h-12.5Zm12.5,22.5v-22.5h6.25v22.5Zm6.25,6.25h3.12a3.13,3.13,0,0,0,3.13-3.12V199.25h6.25v25.63A3.12,3.12,0,0,0,254,228h3.13v18.75H238.38Zm18.75-6.25v-22.5h6.25v22.5Zm6.25,6.25h3.12a3.13,3.13,0,0,0,3.13-3.12V199.25h6.25v25.63A3.12,3.12,0,0,0,279,228h3.13v18.75H263.38Zm18.75-6.25v-22.5h6.25v22.5ZM155.25,243.63V199.25h8.13v25.63A3.12,3.12,0,0,0,166.5,228h3.13v18.75H158.38A3.13,3.13,0,0,1,155.25,243.63Zm144.38,3.12H288.38V228h3.12a3.13,3.13,0,0,0,3.13-3.12V199.25h8.12v44.38A3.12,3.12,0,0,1,299.63,246.75Zm3.12-72.5H155.25V139.88a40.63,40.63,0,1,1,81.25,0,15.64,15.64,0,0,0,15.63,15.62h35a15.64,15.64,0,0,1,15.62,15.63Z" transform="translate(-107.28 -55.61)"/><path d="M195.88,105.5a34.42,34.42,0,0,0-34.38,34.38v6.25a3.13,3.13,0,0,0,6.25,0v-6.25a28.16,28.16,0,0,1,28.13-28.13,3.13,3.13,0,0,0,0-6.25Z" transform="translate(-107.28 -55.61)"/></svg>