<?xml version="1.0" encoding="utf-8"?>
<!-- Generator: Adobe Illustrator 22.0.1, SVG Export Plug-In . SVG Version: 6.00 Build 0)  -->
<svg version="1.1" id="Layer_1" xmlns="http://www.w3.org/2000/svg" xmlns:xlink="http://www.w3.org/1999/xlink" x="0px" y="0px"
	 viewBox="0 0 469.3 469.3" style="enable-background:new 0 0 469.3 469.3;" xml:space="preserve">
<style type="text/css">
	.st0{fill:#0C5D72;}
	.st1{fill:#FFFFFF;}
	.st2{fill:#4F0808;}
	.st3{fill:#29383F;}
</style>
<g id="Calque_2_1_">
	<g>
		<g id="Capa_1_8_">
			<path class="st0" d="M226,59.1h-0.5c-63.2,0-114.7,52.3-114.7,116.5c0,42.1,18.9,97.7,56.1,165.2c16.8,30.4,35.4,59.9,55.5,88.2
				c1,0.4,2,1.1,2.6,2.1c0.1,0,0.1,0,0.2,0.1c1.1-0.1,2.2-0.4,3.3-0.7c0.4-0.3,0.8-0.7,1.1-1.1c0.3-0.4,28.1-43.1,55.5-95.2
				c37-70.4,55.8-123.8,55.8-158.6C340.8,111.4,289.3,59.1,226,59.1z"/>
		</g>
	</g>
</g>
<image style="overflow:visible;" width="539" height="457" xlink:href="FA7CCF93.jpg"  transform="matrix(1 0 0 1 256 389)">
</image>
<g>
	<path class="st1" d="M152.1,196.1v47.5c0,3.5,2.8,6.3,6.3,6.3h141.3c3.5,0,6.3-2.8,6.3-6.3v-47.5H152.1z"/>
	<path class="st2" d="M305.9,177.4v18.8c-45.2,0-105.2,0-153.8,0v-18.8H305.9z"/>
	<g>
		<path class="st3" d="M305.9,171.1v6.3H152.1v-37.5c0-24.2,19.6-43.8,43.8-43.8c24.2,0,43.8,19.6,43.8,43.8
			c0,6.9,5.6,12.5,12.5,12.5h35C297.5,152.4,305.9,160.8,305.9,171.1z"/>
		<path class="st3" d="M291.5,196.1v28.8c-4.4,0-8.1,0-12.5,0v-28.8H291.5z"/>
		<path class="st3" d="M266.5,196.1v28.8c-4.4,0-8.1,0-12.5,0v-28.8H266.5z"/>
		<path class="st3" d="M241.5,196.1v28.8c-4.4,0-8.1,0-12.5,0v-28.8H241.5z"/>
		<path class="st3" d="M204,196.1v28.8c-4.4,0-8.1,0-12.5,0v-28.8H204z"/>
		<path class="st3" d="M179,196.1v28.8c-4.4,0-8.1,0-12.5,0v-28.8H179z"/>
	</g>
	<path d="M164.6,155.5c-1.7,0-3.1,1.4-3.1,3.1s1.4,3.1,3.1,3.1s3.1-1.4,3.1-3.1S166.3,155.5,164.6,155.5z"/>
	<path d="M287.1,149.3h-35c-5.2,0-9.4-4.2-9.4-9.4c0-25.9-21-46.9-46.9-46.9C170,93,149,114,149,139.9v103.8c0,5.2,4.2,9.4,9.4,9.4
		h141.3c5.2,0,9.4-4.2,9.4-9.4v-72.5C309,159.1,299.2,149.3,287.1,149.3z M302.8,193c-43.3,0-104.2,0-147.5,0v-12.5h147.5V193z
		 M169.6,221.8v-22.5h6.3v22.5H169.6z M179,228c1.7,0,3.1-1.4,3.1-3.1v-25.6h6.3v25.6c0,1.7,1.4,3.1,3.1,3.1h3.1v18.8h-18.8V228H179
		z M194.6,221.8v-22.5h6.3v22.5H194.6z M200.9,228h3.1c1.7,0,3.1-1.4,3.1-3.1v-25.6h6.3v47.5h-12.5V228z M219.6,199.3h6.3v25.6
		c0,1.7,1.4,3.1,3.1,3.1h3.1v18.8h-12.5V199.3z M232.1,221.8v-22.5h6.3v22.5H232.1z M238.4,228h3.1c1.7,0,3.1-1.4,3.1-3.1v-25.6h6.3
		v25.6c0,1.7,1.4,3.1,3.1,3.1h3.1v18.8h-18.8V228z M257.1,221.8v-22.5h6.3v22.5H257.1z M263.4,228h3.1c1.7,0,3.1-1.4,3.1-3.1v-25.6
		h6.3v25.6c0,1.7,1.4,3.1,3.1,3.1h3.1v18.8h-18.8V228z M282.1,221.8v-22.5h6.3v22.5H282.1z M155.3,243.6v-44.4h8.1v25.6
		c0,1.7,1.4,3.1,3.1,3.1h3.1v18.8h-11.3C156.7,246.8,155.3,245.3,155.3,243.6z M299.6,246.8h-11.3V228h3.1c1.7,0,3.1-1.4,3.1-3.1
		v-25.6h8.1v44.4C302.8,245.3,301.3,246.8,299.6,246.8z M302.8,174.3H155.3v-34.4c0-22.5,18.2-40.6,40.6-40.6
		c22.5,0,40.6,18.2,40.6,40.6c0,8.6,7,15.6,15.6,15.6h35c8.6,0,15.6,7,15.6,15.6V174.3z"/>
	<path d="M195.9,105.5c-19,0-34.4,15.4-34.4,34.4v6.3c0,1.7,1.4,3.1,3.1,3.1s3.1-1.4,3.1-3.1v-6.3c0-15.5,12.6-28.1,28.1-28.1
		c1.7,0,3.1-1.4,3.1-3.1S197.6,105.5,195.9,105.5z"/>
</g>
</svg>
