<?xml version="1.0" encoding="utf-8"?>
<!-- Generator: Adobe Illustrator 22.0.1, SVG Export Plug-In . SVG Version: 6.00 Build 0)  -->
<svg version="1.1" xmlns="http://www.w3.org/2000/svg" xmlns:xlink="http://www.w3.org/1999/xlink" x="0px" y="0px"
	 viewBox="0 0 512 512" style="enable-background:new 0 0 512 512;" xml:space="preserve">
<style type="text/css">
	.st0{fill:none;}
	.st1{fill:#E1E1EA;stroke:#000000;stroke-width:19;stroke-miterlimit:10;}
	.st2{clip-path:url(#SVGID_2_);}
</style>
<g id="Capa_1">
	<line class="st0" x1="3.3" y1="435" x2="3.7" y2="435"/>
	<path class="st1" d="M203.9,20.2h-0.5c-63.3,0-114.7,52.3-114.7,116.5c0,42.1,18.9,97.7,56.1,165.2c25.8,46.9,52,83.4,55.5,88.2
		c1,0.4,1.9,1.1,2.6,2.1c0.1,0,0.1,0,0.2,0.1c1.1-0.1,2.2-0.4,3.3-0.7c0.4-0.3,0.8-0.6,1.1-1.1c0.3-0.4,28.1-43.1,55.5-95.2
		c37-70.4,55.8-123.8,55.8-158.6C318.7,72.5,267.2,20.2,203.9,20.2z"/>
	<g>
		<defs>
			<path id="SVGID_1_" d="M205.2,20.2h-0.5c-63.3,0-114.7,53.1-114.7,118.4c0,16.8,2.1,31,9.6,59.7c11.1,42.4,26.9,72,46.6,108.2
				c12.9,23.8,31.1,54.7,55.5,89.7c1,0.4,1.9,1.1,2.6,2.1c0.1,0,0.1,0,0.2,0.1c1.1-0.1,2.2-0.4,3.3-0.7c0.4-0.3,0.8-0.7,1.1-1.1
				c0.3-0.4,28.1-43.8,55.5-96.8c37-71.5,55.8-125.8,55.8-161.2C319.9,73.3,268.5,20.2,205.2,20.2z"/>
		</defs>
		<clipPath id="SVGID_2_">
			<use xlink:href="#SVGID_1_"  style="overflow:visible;"/>
		</clipPath>
		<g class="st2">
			<path d="M192.8,12.6h-63.9v31.9h-0.1v152.6c0,7.8,4.8,14.2,10.7,14.2h10.7v113.5h0h0v28.4h21.3v-28.4V211.3h10.7
				c5.9,0,10.7-6.3,10.7-14.2v-153h0V12.6z"/>
			<path d="M276.5,12.6h-62.3v31.5h-0.1v153c0,7.8,4.8,14.2,10.7,14.2h10.7v113.5v28.4h21.3v-28.4h0V211.3h10.7
				c5.9,0,10.7-6.3,10.7-14.2V41V12.6H276.5z"/>
		</g>
	</g>
</g>
<g id="Calque_2">
</g>
</svg>
