<svg xmlns="http://www.w3.org/2000/svg" xmlns:xlink="http://www.w3.org/1999/xlink" viewBox="0 0 181 131.75"><defs><style>.cls-1{fill:none;}.cls-1,.cls-2{stroke:#dfdfdf;stroke-miterlimit:10;}.cls-2,.cls-4{fill:#0d0d0d;}.cls-3{clip-path:url(#clip-path);}.cls-5{clip-path:url(#clip-path-2);}</style><clipPath id="clip-path"><circle class="cls-1" cx="85.84" cy="65.87" r="56"/></clipPath><clipPath id="clip-path-2"><path id="SVGID" class="cls-2" d="M175.84.5H5.16A4.66,4.66,0,0,0,.5,5.16V126.59a4.66,4.66,0,0,0,4.66,4.66H175.84a4.66,4.66,0,0,0,4.66-4.66V5.16A4.66,4.66,0,0,0,175.84.5Zm-127,70a4.67,4.67,0,0,0,4.66-4.67v-56H77.12v56a4.67,4.67,0,0,0,4.66,4.67h4.06v51.38H44.76V70.54Zm46.35,0h4a4.67,4.67,0,0,0,4.67-4.67v-56h23.65v56a4.67,4.67,0,0,0,4.66,4.67h4.05v51.38H95.16ZM9.83,9.83H26.71v56a4.67,4.67,0,0,0,4.67,4.67h4.05v51.38H9.83ZM171.17,121.92h-25.6V70.54h4.05a4.66,4.66,0,0,0,4.66-4.67v-56h16.89Z"/></clipPath></defs><title>Fichier 1</title><g id="Calque_2" data-name="Calque 2"><g id="Capa_1" data-name="Capa 1"><g class="cls-3"><path id="SVGID-2" data-name="SVGID" class="cls-4" d="M175.84.5H5.16A4.66,4.66,0,0,0,.5,5.16V126.59a4.66,4.66,0,0,0,4.66,4.66H175.84a4.66,4.66,0,0,0,4.66-4.66V5.16A4.66,4.66,0,0,0,175.84.5Zm-127,70a4.67,4.67,0,0,0,4.66-4.67v-56H77.12v56a4.67,4.67,0,0,0,4.66,4.67h4.06v51.38H44.76V70.54Zm46.35,0h4a4.67,4.67,0,0,0,4.67-4.67v-56h23.65v56a4.67,4.67,0,0,0,4.66,4.67h4.05v51.38H95.16ZM9.83,9.83H26.71v56a4.67,4.67,0,0,0,4.67,4.67h4.05v51.38H9.83ZM171.17,121.92h-25.6V70.54h4.05a4.66,4.66,0,0,0,4.66-4.67v-56h16.89Z"/><g class="cls-5"><circle class="cls-2" cx="86.61" cy="65.87" r="60"/></g><path id="SVGID-3" data-name="SVGID" class="cls-1" d="M175.84.5H5.16A4.66,4.66,0,0,0,.5,5.16V126.59a4.66,4.66,0,0,0,4.66,4.66H175.84a4.66,4.66,0,0,0,4.66-4.66V5.16A4.66,4.66,0,0,0,175.84.5Zm-127,70a4.67,4.67,0,0,0,4.66-4.67v-56H77.12v56a4.67,4.67,0,0,0,4.66,4.67h4.06v51.38H44.76V70.54Zm46.35,0h4a4.67,4.67,0,0,0,4.67-4.67v-56h23.65v56a4.67,4.67,0,0,0,4.66,4.67h4.05v51.38H95.16ZM9.83,9.83H26.71v56a4.67,4.67,0,0,0,4.67,4.67h4.05v51.38H9.83ZM171.17,121.92h-25.6V70.54h4.05a4.66,4.66,0,0,0,4.66-4.67v-56h16.89Z"/></g><circle class="cls-1" cx="85.84" cy="65.87" r="56"/></g></g></svg>