<svg xmlns="http://www.w3.org/2000/svg" viewBox="0 0 249 391.26"><defs><style>.cls-1{fill:#e1e1ea;stroke:#000;stroke-miterlimit:10;stroke-width:19px;}</style></defs><title>marker_uniFichier 3</title><g id="Calque_2" data-name="Calque 2"><g id="Capa_1" data-name="Capa 1"><path class="cls-1" d="M124.76,9.5h-.52C61,9.5,9.5,61.78,9.5,126c0,42.13,18.88,97.72,56.11,165.24a928.47,928.47,0,0,0,55.49,88.24,6,6,0,0,1,2.61,2.06,1.52,1.52,0,0,0,.2.06,17.36,17.36,0,0,0,3.25-.68,4.15,4.15,0,0,0,1.08-1.09c.28-.42,28.07-43.07,55.49-95.23,37-70.4,55.77-123.77,55.77-158.6C239.5,61.78,188,9.5,124.76,9.5Z"/></g></g></svg>